<svg width="265" height="105" viewBox="0 0 265 105" fill="none" xmlns="http://www.w3.org/2000/svg">
<path d="M152 34.4C150.7 35.8 150.4 37.6 150.4 39.5V79.3H163.9V21.9L152 34.4Z" fill="#6E6E6E"/>
<path d="M150.3 3.09998V24.3L163.8 9.99998V3.09998H150.3Z" fill="#6E6E6E"/>
<path d="M143.5 29.5C143.2 17.4 138.8 12.7 127 12.7C121.5 12.7 101.2 12.7 101.2 12.7V103H114.4V79.2C116.6 79.2 122.6 79.2 127 79.2C138.8 79.2 143.2 74.3 143.5 62.2C143.5 61.9 143.5 29.8 143.5 29.5ZM122.2 67.9C116.9 67.9 114.4 67.8999 114.4 63.2999V28.4C114.4 23.8 116.9 23.8 122.2 23.8C127.2 23.8 130 23.8 130 28.4V63.2999C130 67.8999 127.2 67.8 122.2 67.9Z" fill="#6E6E6E"/>
<path d="M94.1999 29.5C93.8999 17.4 89.4999 12.7 77.6999 12.7C72.1999 12.7 51.8999 12.7 51.8999 12.7V103H64.9999V79.2C67.1999 79.2 73.1999 79.2 77.5999 79.2C89.3999 79.2 93.7999 74.3 94.0999 62.2C94.1999 61.9 94.1999 29.8 94.1999 29.5ZM72.8999 67.9C67.5999 67.9 65.0999 67.8999 65.0999 63.2999V28.4C65.0999 23.8 67.5999 23.8 72.8999 23.8C77.8999 23.8 80.6999 23.8 80.6999 28.4V63.2999C80.6999 67.8999 77.8999 67.8 72.8999 67.9Z" fill="#6E6E6E"/>
<path d="M249 79.2V28.5C249 23.9 246.2 23.9 241.2 23.9C235.9 23.9 233.4 23.9 233.4 28.5V79.2H220V12.7C220 12.7 240.6 12.7 246 12.7C257.8 12.7 262.2 17.6 262.5 29.7C262.5 30 262.5 79.3 262.5 79.3H249V79.2Z" fill="#6E6E6E"/>
<path d="M213.1 29.6C212.8 17.5 208.2 12.6 196.4 12.6C195.8 12.6 183.3 12.6 178.9 12.6V23.9C191.7 23.9 191 23.9 191.6 23.9C196.6 23.9 199.4 23.9 199.4 28.5V35.1C197 35.1 191.3 35 187.1 35C175.3 35 170.9 39.9 170.6 52C170.6 52.3 170.6 62.1 170.6 62.4C170.9 74.5 175.3 79.3 187.1 79.3C192.6 79.3 213.1 79.3 213.1 79.3V29.6ZM199.8 63.4C199.8 68 197.3 68 192 68C187 68 184.2 68 184.2 63.4V50.8C184.2 46.2 187 46.2 192 46.2C197.3 46.2 199.8 46.2 199.8 50.8V63.4Z" fill="#6E6E6E"/>
<path d="M45 29.6C44.7 17.5 40.1 12.6 28.3 12.6C27.7 12.6 15.2 12.6 10.8 12.6V23.9C23.6 23.9 22.9 23.9 23.5 23.9C28.5 23.9 31.3 23.9 31.3 28.5V35.1C29 35.1 23.3 35 19 35C7.2 35 2.8 39.8 2.5 52C2.5 52.3 2.5 62.1 2.5 62.4C2.8 73.8 6.7 78.7 17.1 79.3L27.8 68C26.7 68.1 25.4 68.1 23.8 68.1C18.8 68.1 16 68.1 16 63.5V50.8C16 46.2 18.8 46.2 23.8 46.2C29.1 46.2 31.6 46.2 31.6 50.8V79.2C32.1 79.2 45 79.2 45 79.2V29.6Z" fill="#6E6E6E"/>
</svg>
