<svg focusable="false" role="img" aria-labelledby="svgTitle_Cooper" class="apollo-icon apollo-icon-mrcooper-white-logo apollo-icon-legacy " xmlns="http://www.w3.org/2000/svg" xmlns:xlink="http://www.w3.org/1999/xlink" width="588" height="188" viewBox="0 0 141 45">
 <path fill="#009FC7" style="fill:#009FC7;" d="M0 25.643c0-6.374 4.578-10.86 10.935-10.86 5.112 0 8.312 3.254 8.312 6.068 0 2.156-1.112 3.691-3.153 3.691-1.914 0-3.025-1.318-3.025-2.9 0-1.272.98-2.33 1.824-2.68-.623-.925-1.867-1.627-3.823-1.627-3.025 0-5.47 2.768-5.47 7.824 0 4.706 2 7.56 5.87 7.56 2.443 0 4.31-1.403 5.244-4.086h2.711c-.976 4.485-4.18 7.297-9.025 7.297C3.823 35.93 0 31.622 0 25.643M21.661 25.424c0-6.242 4.379-10.639 10.571-10.639 6.417 0 10.575 4.219 10.575 10.465 0 6.242-4.379 10.678-10.575 10.678-6.456 0-10.57-4.261-10.57-10.504m15.484-.089c0-5.583-1.86-7.913-5.088-7.913-3.232 0-4.735 2.373-4.735 7.913s1.813 7.956 5.087 7.956c3.14 0 4.736-2.415 4.736-7.956M45.73 25.424c0-6.242 4.379-10.639 10.571-10.639 6.417 0 10.575 4.219 10.575 10.465 0 6.242-4.379 10.678-10.575 10.678-6.46 0-10.57-4.261-10.57-10.504m15.48-.089c0-5.583-1.856-7.913-5.088-7.913-3.228 0-4.731 2.373-4.731 7.913s1.813 7.956 5.087 7.956c3.14 0 4.732-2.415 4.732-7.956M68.423 41.273h3.146V18.388h-3.146v-3.253h8.066v4.75c1.415-3.431 3.855-5.102 6.862-5.102 2.177 0 3.902.794 5.23 2.112 1.864 1.846 2.705 4.746 2.705 8.085 0 3.47-1.062 6.416-2.922 8.262-1.421 1.407-3.238 2.241-5.23 2.241-3.057 0-5.23-1.539-6.427-3.606v9.396h4.08v3.253H68.422v-3.253m17.28-16.336c0-4.614-1.728-6.855-4.34-6.855-2.572 0-4.874 3.117-4.874 7.382 0 3.866 1.593 6.898 4.874 6.898 2.833 0 4.34-2.594 4.34-7.425M99.668 25.82c.178 4.97 2.244 6.986 5.9 6.986 2.42 0 4.183-1.051 5.284-3.645h2.64c-1.012 4.308-4.051 6.766-9.071 6.766-6.428 0-10.212-4.393-10.212-10.372 0-6.153 4.358-10.77 10.3-10.77 6.428 0 9.336 5.145 9.115 11.034H99.668m.046-2.33h8.8c-.263-3.958-1.496-6.11-4.268-6.11-2.508 0-4.183 1.624-4.532 6.11M116.386 32.021h3.065v-13.71h-3.065v-3.22h7.974v4.916c1.098-3.524 3.638-5.223 6.136-5.223 2.365 0 3.77 1.7 3.77 3.655 0 1.785-1.273 3.225-2.98 3.225-1.71 0-3.024-1.002-3.024-2.787 0-.174.042-.391.085-.566-1.62 0-3.021 1.828-3.766 4.354v9.356h3.813v3.22h-12.008v-3.22M36.102 7.573c-.855 2.095-1.97 2.914-3.103 2.914-1.186 0-1.956-.762-1.956-2.027 0-2.18 1.45-4.34 1.45-5.822 0-.502-.217-.72-.591-.72-.973 0-2.886 1.657-4.646 8.349h-2.601l1.542-5.755c.196-.72.307-1.243.307-1.656 0-.524-.175-.937-.66-.937-1.011 0-2.907 1.656-4.667 8.348h-2.643l1.895-7.062c.328-1.244.264-1.593-.135-1.593-.406 0-.859.613-1.35 1.557l-1.066-.424C18.751 1.01 19.763.023 21.067.023c.944 0 1.607.674 1.607 2.027 0 .631-.132 1.419-.463 2.42l.156.064C23.817 1.463 25.45.002 26.946.002c1.211 0 1.849.805 1.849 2.113 0 .609-.178 1.354-.506 2.355l.153.064C29.896 1.463 31.524.002 33.088.002c1.212 0 1.981.958 1.981 2.266 0 1.853-1.628 4.642-1.628 5.971 0 .328.132.481.374.481.392 0 .784-.499 1.25-1.557l1.037.41M37.305 2.743c.847-1.735 1.834-2.722 3.1-2.722.93 0 1.578.692 1.578 2.07 0 .649-.129 1.426-.431 2.405l.17.068C42.978 1.624 44.015 0 45.529 0c.908 0 1.575.645 1.575 1.692 0 1.116-.688 2.006-1.554 2.006-.755 0-1.343-.513-1.297-1.45-.627.267-2.184 2.16-3.74 8.238h-2.595l1.86-7.212c.324-1.272.26-1.628-.128-1.628-.392 0-.827.599-1.3 1.529l-1.044-.432M44.869 9.083c0-.887.68-1.863 1.746-1.863.862 0 1.521.602 1.521 1.574 0 .888-.68 1.864-1.746 1.864-.862 0-1.521-.599-1.521-1.575" transform="translate(-21.000000, -40.000000) translate(21.000000, 40.000000)">
 </path>
 <g xmlns="http://www.w3.org/2000/svg">
  <g transform="translate(-21.000000, -40.000000) translate(21.000000, 40.000000) translate(135.220000, 13.720000)">
   <path fill="#009FC7" style="fill:#009FC7;" d="M4.88 3.719c-.122.287-.291.536-.498.752-.212.212-.46.377-.743.504-.282.117-.593.183-.913.183-.216 0-.427-.028-.625-.085-.202-.056-.386-.131-.555-.235-.174-.103-.33-.226-.475-.367-.136-.145-.254-.3-.357-.48-.1-.173-.18-.362-.236-.564-.051-.202-.08-.414-.08-.63 0-.33.066-.64.184-.931.117-.287.282-.536.489-.753.212-.216.46-.385.743-.512.282-.123.588-.184.912-.184.217 0 .424.028.626.085.202.056.386.136.56.24.169.099.324.226.47.367.141.145.259.305.362.484.099.174.179.362.235.57.052.201.08.413.08.634 0 .33-.06.635-.179.922m.447-1.642c-.066-.225-.155-.442-.273-.644-.112-.202-.258-.38-.423-.545-.164-.165-.343-.306-.545-.424C3.888.347 3.672.257 3.44.192c-.225-.066-.465-.1-.715-.1-.249 0-.489.034-.714.1-.23.065-.447.155-.645.272C1.17.582.987.723.822.888c-.165.164-.31.343-.424.545-.117.202-.206.419-.272.644-.061.23-.094.47-.094.72 0 .245.033.484.094.715.066.226.155.442.272.64.113.202.26.38.424.545.164.165.348.306.545.423.198.118.414.207.645.273.225.066.465.094.714.094.25 0 .49-.028.715-.094.23-.066.447-.155.645-.273.202-.117.38-.258.545-.423.165-.165.31-.343.423-.545.118-.198.207-.414.273-.64.061-.23.094-.47.094-.715 0-.25-.033-.49-.094-.72" mask="url(#9zn6rn1veb)">
   </path>
  </g>
  <g transform="translate(-21.000000, -40.000000) translate(21.000000, 40.000000) translate(135.220000, 13.720000) translate(0.195765, 0.195765)">
   <path fill="#009FC7" style="fill:#009FC7;" d="M2.425 2.513h-.428V1.389h.489c.127 0 .23.014.32.037.09.02.155.052.207.1.056.042.094.098.113.169.023.065.037.145.037.235 0 .094-.014.178-.042.249-.019.07-.061.132-.122.183-.057.047-.132.085-.23.113-.09.024-.208.038-.344.038m.63.367c-.028-.038-.066-.07-.108-.094.259-.062.456-.174.588-.339.132-.16.197-.357.197-.588 0-.3-.103-.527-.305-.682-.203-.15-.518-.23-.941-.23H1.423v3.292h.574V2.93h.296c.061 0 .108.01.141.029.033.014.061.042.08.07l.743 1.115c.043.06.1.094.18.094h.545L3.14 3.007c-.028-.052-.052-.094-.085-.127" mask="url(#7u2s5r7ltd)">
   </path>
  </g>
 </g>
</svg>